{"title":"Bill Bailey Live Bewilderness x264 RB58.mp4","uid":9762625,"size":691165680,"categoryP":"video","categoryS":"movies_dvdr","magnet":"?xt=urn:btih:55862a940ab5f69de8128db1353760ff85126898&amp;dn=Bill+Bailey+Live+Bewilderness+x264+RB58.mp4&amp;tr=udp%3A%2F%2Ftracker.openbittorrent.com%3A80&amp;tr=udp%3A%2F%2Fopen.demonii.com%3A1337&amp;tr=udp%3A%2F%2Ftracker.coppersurfer.tk%3A6969&amp;tr=udp%3A%2F%2Fexodus.desync.com%3A6969","seeders":10,"leechers":0,"uploader":"RedBaron58","files":1,"time":1394833433,"description":"Bill Bailey Live 2001 Bewilderness DVDrip x264 \n &lt;a href=&quot;\nhttp://www.imdb.com/title/tt0300997/&quot; rel=&quot;nofollow&quot; target=&quot;_NEW&quot;&gt;\nhttp://www.imdb.com/title/tt0300997/&lt;/a&gt;\n\nPlease be patient My upload speed is limited, but I am online most the time and during the night.\nThank you for your kind comments and thumbs ups on my other torrents, your feedback is welcome.\n\n\nAbout the Episode:\nBill Bailey performing live in wales. Bill Bailey with a welch accent you should see it.\n\n\nI hope you enjoy.\n\n\nTechnical:\n\nGeneral\nComplete name                            : F:Bill Bailey Live Bewilderness x264 RB58.mp4\nFormat                                   : MPEG-4\nFormat profile                           : Base Media / Version 2\nCodec ID                                 : mp42\nFile size                                : 659 MiB\nDuration                                 : 1h 19mn\nOverall bit rate mode                    : Variable\nOverall bit rate                         : 1 159 Kbps\nEncoded date                             : UTC 2014-03-10 11:51:26\nTagged date                              : UTC 2014-03-10 12:08:28\nWriting application                      : HandBrake 0.9.8 2012071700\n\nVideo\nID                                       : 1\nFormat                                   : AVC\nFormat/Info                              : Advanced Video Codec\nFormat profile                           : &lt;a class=&quot;__cf_email__&quot; href=&quot;/cdn-cgi/l/email-protection&quot; data-cfemail=&quot;6a270b03042a2659445a&quot;&gt;[email&amp;#160;protected]&lt;/a&gt;&lt;script cf-hash='f9e31' type=&quot;text/javascript&quot;&gt;\n/* &lt;![CDATA[ */!function(){try{var t=&quot;currentScript&quot;in document?document.currentScript:function(){for(var t=document.getElementsByTagName(&quot;script&quot;),e=t.length;e--;)if(t[e].getAttribute(&quot;cf-hash&quot;))return t[e]}();if(t&amp;&amp;t.previousSibling){var e,r,n,i,c=t.previousSibling,a=c.getAttribute(&quot;data-cfemail&quot;);if(a){for(e=&quot;&quot;,r=parseInt(a.substr(0,2),16),n=2;a.length-n;n+=2)i=parseInt(a.substr(n,2),16)^r,e+=String.fromCharCode(i);e=document.createTextNode(e),c.parentNode.replaceChild(e,c)}}}catch(u){}}();/* ]]&gt; */&lt;/script&gt;\nFormat settings, CABAC                   : Yes\nFormat settings, ReFrames                : 4 frames\nCodec ID                                 : avc1\nCodec ID/Info                            : Advanced Video Coding\nDuration                                 : 1h 19mn\nBit rate mode                            : Variable\nBit rate                                 : 1 000 Kbps\nWidth                                    : 692 pixels\nHeight                                   : 572 pixels\nDisplay aspect ratio                     : 1.720\nOriginal display aspect ratio            : 1.721\nFrame rate mode                          : Variable\nFrame rate                               : 25.000 fps\nMinimum frame rate                       : 8.333 fps\nMaximum frame rate                       : 25.000 fps\nColor space                              : YUV\nChroma subsampling                       : 4:2:0\nBit depth                                : 8 bits\nScan type                                : Progressive\nBits/(Pixel*Frame)                       : 0.101\nStream size                              : 568 MiB (86%)\nWriting library                          : x264 core 120\nEncoding settings                        : cabac=1 / ref=1 / deblock=1:0:0 / analyse=0x1:0x111\nEncoded date                             : UTC 2014-03-10 11:51:26\nTagged date                              : UTC 2014-03-10 12:08:28\nColor primaries                          : BT.601 NTSC\nTransfer characteristics                 : BT.709\nMatrix coefficients                      : BT.601\n\nAudio\nID                                       : 2\nFormat                                   : MPEG Audio\nFormat version                           : Version 1\nFormat profile                           : Layer 3\nCodec ID                                 : 69\nDuration                                 : 1h 19mn\nBit rate mode                            : Variable\nBit rate                                 : 156 Kbps\nMaximum bit rate                         : 203 Kbps\nChannel(s)                               : 2 channels\nSampling rate                            : 48.0 KHz\nCompression mode                         : Lossy\nDelay relative to video                  : 160ms\nStream size                              : 88.6 MiB (13%)\nLanguage                                 : English\nEncoded date                             : UTC 2014-03-10 11:51:26\nTagged date                              : UTC 2014-03-10 12:08:27","torrent":{"xt":"urn:btih:55862a940ab5f69de8128db1353760ff85126898","amp;dn":"Bill+Bailey+Live+Bewilderness+x264+RB58.mp4","amp;tr":["udp%3A%2F%2Ftracker.openbittorrent.com%3A80","udp%3A%2F%2Fopen.demonii.com%3A1337","udp%3A%2F%2Ftracker.coppersurfer.tk%3A6969","udp%3A%2F%2Fexodus.desync.com%3A6969"],"infoHash":"55862a940ab5f69de8128db1353760ff85126898","infoHashBuffer":{"type":"Buffer","data":[85,134,42,148,10,181,246,157,232,18,141,177,53,55,96,255,133,18,104,152]},"announce":[],"urlList":[]}}